<svg width="1170" height="450" viewBox="0 0 1170 450" fill="none" xmlns="http://www.w3.org/2000/svg">
<g clip-path="url(#clip0_4066_211)">
<rect width="1170" height="450" fill="white"/>
<path d="M810 224.904L810 270C821.82 270.003 833.525 267.677 844.445 263.156C855.366 258.634 865.289 252.005 873.647 243.647C882.005 235.289 888.634 225.366 893.156 214.445C897.677 203.525 900.003 191.82 900 180L858 180C857.994 191.933 852.5 204.5 843.5 212C835.062 220.438 821.933 224.994 810 225L810 224.904Z" fill="#96005A"/>
<path d="M858 180.041L810 180.041L810 225C816.289 225.005 822.525 223.855 828.392 221.608C834.151 219.356 839.427 216.041 843.938 211.839C848.356 207.701 851.89 202.725 854.33 197.207C856.75 191.788 858 185.927 858 180" fill="#EB5893"/>
<path d="M990 180L900 180C900 130.469 859.531 90 810 90L810 -1.52588e-05C909.41 -6.56807e-06 990 80.5897 990 180Z" fill="#FFA8DC"/>
<path d="M990.024 180L900 180C899.994 156.89 904.645 134.004 913.688 112.651C922.731 91.2982 935.989 71.8958 952.704 55.552C969.419 39.2083 989.264 26.2435 1011.11 17.3981C1032.95 8.55267 1056.36 -8.26546e-07 1080 0L1080 90C1056.13 90.0125 1033.24 101.288 1016.36 117.788C999.477 134.289 990.037 156.665 990.024 180Z" fill="#BD3680"/>
<path d="M90.0241 360H6.43818e-06C-0.00631664 336.89 4.64494 314.004 13.688 292.651C22.731 271.298 35.9886 251.896 52.7038 235.552C69.419 219.208 89.2641 206.243 111.106 197.398C132.948 188.553 156.358 180 180 180L180 270C156.128 270.012 133.238 281.288 116.357 297.788C99.4775 314.289 90.0369 336.665 90.0241 360Z" fill="#96005A"/>
<path d="M-90 -3.14722e-05L0 -2.36041e-05C-8.66032e-06 49.5312 40.4687 90 90 90L90 180C-9.4103 180 -90 99.4103 -90 -3.14722e-05Z" fill="#FFA8DC"/>
<path d="M270 90L360 90C360 139.531 400.469 180 450 180L450 270C350.59 270 270 189.41 270 90Z" fill="#FFA8DC"/>
<path d="M630 0L540 -1.57361e-05L540 90C551.817 90.0056 563.519 87.6819 574.438 83.1615C585.357 78.6412 595.279 72.0127 603.637 63.6548C611.995 55.297 618.625 45.3736 623.148 34.4515C627.672 23.5293 630 11.8226 630 0Z" fill="#96005A"/>
<path d="M630 0L720 1.57361e-05L720 90C708.183 90.0057 696.481 87.6819 685.562 83.1616C674.643 78.6412 664.721 72.0127 656.363 63.6548C648.005 55.297 641.375 45.3736 636.852 34.4515C632.328 23.5293 630 11.8226 630 0Z" fill="#FFA8DC"/>
<path d="M180.024 180L90 180C89.9937 156.89 94.6449 134.004 103.688 112.651C112.731 91.2982 125.989 71.8958 142.704 55.552C159.419 39.2083 179.264 26.2435 201.106 17.3981C222.948 8.55267 246.358 -8.26546e-07 270 0L270 90C246.128 90.0125 223.238 101.288 206.358 117.788C189.477 134.289 180.037 156.665 180.024 180Z" fill="#96005A"/>
<path d="M269.976 90L360 90C360.006 113.11 355.355 135.996 346.312 157.349C337.269 178.702 324.011 198.104 307.296 214.448C290.581 230.792 270.736 243.757 248.894 252.602C227.052 261.447 203.642 270 180 270L180 180C203.872 179.988 226.762 168.712 243.643 152.212C260.523 135.711 269.963 113.335 269.976 90Z" fill="#BD3680"/>
<path d="M990 270L990 360C1039.53 360 1080 400.469 1080 450L1170 450C1170 350.59 1089.41 270 990 270Z" fill="#FFA8DC"/>
<path d="M450 134.904L450 180C461.82 180.003 473.525 177.677 484.445 173.156C495.366 168.634 505.289 162.005 513.647 153.647C522.005 145.289 528.634 135.366 533.156 124.445C537.677 113.525 540.003 101.82 540 90L498 90C497.994 101.933 492.5 114.5 483.5 122C475.062 130.438 461.933 134.994 450 135L450 134.904Z" fill="#FFA8DC"/>
<path d="M498 90.0408L450 90.0408L450 135C456.289 135.005 462.525 133.855 468.392 131.608C474.151 129.356 479.427 126.041 483.938 121.839C488.356 117.701 491.89 112.725 494.33 107.207C496.75 101.788 498 95.9266 498 90" fill="#96005A"/>
<path d="M90 360L90 450L-7.62939e-06 450C0.0113165 426.141 9.49572 403.263 26.3703 386.388C43.2449 369.513 66.1301 360.023 90 360Z" fill="#FFA8DC"/>
<path d="M450 45L450 90L405 90C405.009 78.0679 409.753 66.6271 418.19 58.1899C426.627 49.7526 438.068 45.0088 450 45Z" fill="#96005A"/>
<path d="M381.466 422.698C375.893 422.698 371.137 421.658 367.199 419.577C363.26 417.497 360.028 414.636 357.501 410.995C354.975 407.354 353.117 403.23 351.928 398.623C350.814 393.941 350.256 389.037 350.256 383.91C350.256 378.262 350.888 372.949 352.151 367.971C353.414 362.918 355.384 358.459 358.059 354.595C360.734 350.657 364.115 347.573 368.202 345.344C372.363 343.115 377.342 342 383.138 342C387.596 342 391.646 342.78 395.287 344.341C399.002 345.901 402.123 348.279 404.65 351.474C407.176 354.595 408.811 358.608 409.554 363.512H394.395C393.504 361.357 391.98 359.648 389.825 358.385C387.745 357.122 385.293 356.49 382.469 356.49C379.868 356.49 377.602 356.973 375.67 357.939C373.738 358.831 372.066 360.094 370.654 361.729C369.316 363.289 368.202 365.073 367.31 367.079C366.418 369.085 365.787 371.203 365.415 373.432C365.044 375.587 364.858 377.742 364.858 379.897C366.641 377.445 368.685 375.513 370.988 374.101C373.366 372.689 375.744 371.723 378.122 371.203C380.5 370.609 382.655 370.311 384.587 370.311C389.862 370.311 394.395 371.352 398.185 373.432C401.975 375.513 404.873 378.448 406.879 382.238C408.96 385.953 410 390.374 410 395.502C410 401 408.774 405.793 406.322 409.88C403.87 413.967 400.488 417.125 396.179 419.355C391.943 421.584 387.039 422.698 381.466 422.698ZM381.577 408.097C384.252 408.097 386.481 407.54 388.265 406.425C390.123 405.31 391.534 403.861 392.5 402.078C393.466 400.22 393.949 398.251 393.949 396.17C393.949 393.941 393.466 391.935 392.5 390.152C391.534 388.294 390.16 386.808 388.376 385.693C386.593 384.578 384.401 384.021 381.8 384.021C379.348 384.021 377.081 384.578 375.001 385.693C372.995 386.733 371.434 388.182 370.319 390.04C369.205 391.823 368.648 393.867 368.648 396.17C368.648 398.251 369.168 400.22 370.208 402.078C371.248 403.861 372.734 405.31 374.666 406.425C376.598 407.54 378.902 408.097 381.577 408.097Z" fill="#96005A"/>
<path d="M283.559 422.775V409.534L305.276 391.242C306.827 389.895 308.6 388.399 310.595 386.753C312.663 385.032 314.62 383.2 316.467 381.254C318.388 379.309 319.939 377.252 321.121 375.082C322.377 372.913 323.004 370.668 323.004 368.349C323.004 365.132 322.007 362.514 320.013 360.494C318.092 358.474 315.248 357.464 311.481 357.464C307.935 357.464 305.128 358.287 303.06 359.933C301.066 361.504 299.81 363.524 299.293 365.993H284.002C284.445 360.681 285.997 356.304 288.656 352.863C291.389 349.347 294.824 346.728 298.96 345.008C303.097 343.287 307.455 342.427 312.035 342.427C316.984 342.427 321.49 343.362 325.553 345.232C329.616 347.103 332.829 349.833 335.193 353.424C337.556 356.94 338.738 361.317 338.738 366.554C338.738 371.043 337.889 375.12 336.19 378.786C334.565 382.377 332.312 385.743 329.431 388.885C326.55 391.953 323.3 394.908 319.68 397.751L307.271 407.963H338.627V422.775H283.559Z" fill="#96005A"/>
<path d="M245.415 422.698C239.619 422.698 234.715 421.658 230.702 419.577C226.69 417.497 223.42 414.636 220.894 410.995C218.367 407.28 216.547 403.007 215.432 398.177C214.318 393.272 213.76 388.071 213.76 382.572C213.76 376.925 214.318 371.649 215.432 366.745C216.621 361.84 218.479 357.53 221.005 353.815C223.606 350.1 226.913 347.202 230.925 345.121C235.012 343.04 239.917 342 245.638 342C251.583 342 256.562 343.077 260.574 345.232C264.661 347.387 267.931 350.397 270.383 354.261C272.909 358.051 274.693 362.36 275.733 367.19C276.848 372.02 277.405 377.073 277.405 382.349C277.405 387.774 276.848 392.901 275.733 397.731C274.618 402.561 272.835 406.871 270.383 410.661C267.931 414.376 264.661 417.311 260.574 419.466C256.487 421.621 251.434 422.698 245.415 422.698ZM245.415 407.985C249.057 407.985 251.917 407.168 253.998 405.533C256.153 403.824 257.751 401.632 258.791 398.957C259.905 396.282 260.611 393.495 260.909 390.597C261.28 387.625 261.466 384.876 261.466 382.349C261.466 379.971 261.28 377.333 260.909 374.435C260.611 371.463 259.943 368.677 258.902 366.076C257.862 363.401 256.302 361.209 254.221 359.5C252.14 357.79 249.317 356.936 245.75 356.936C242.183 356.936 239.322 357.79 237.167 359.5C235.012 361.134 233.378 363.289 232.263 365.964C231.223 368.639 230.517 371.426 230.145 374.324C229.774 377.222 229.588 379.897 229.588 382.349C229.588 384.801 229.736 387.514 230.034 390.486C230.405 393.458 231.111 396.282 232.151 398.957C233.192 401.632 234.752 403.824 236.833 405.533C238.988 407.168 241.849 407.985 245.415 407.985Z" fill="#96005A"/>
<path d="M149 422.775V409.534L170.717 391.242C172.268 389.895 174.041 388.399 176.036 386.753C178.104 385.032 180.061 383.2 181.908 381.254C183.829 379.309 185.38 377.252 186.562 375.082C187.817 372.913 188.445 370.668 188.445 368.349C188.445 365.132 187.448 362.514 185.454 360.494C183.533 358.474 180.689 357.464 176.922 357.464C173.376 357.464 170.569 358.287 168.501 359.933C166.507 361.504 165.251 363.524 164.734 365.993H149.443C149.886 360.681 151.438 356.304 154.097 352.863C156.83 349.347 160.265 346.728 164.401 345.008C168.538 343.287 172.896 342.427 177.476 342.427C182.425 342.427 186.931 343.362 190.994 345.232C195.056 347.103 198.27 349.833 200.634 353.424C202.997 356.94 204.179 361.317 204.179 366.554C204.179 371.043 203.33 375.12 201.631 378.786C200.006 382.377 197.753 385.743 194.872 388.885C191.991 391.953 188.741 394.908 185.121 397.751L172.712 407.963H204.068V422.775H149Z" fill="#96005A"/>
<path d="M747.602 332.578C739.937 322.018 731.465 310.324 727.331 297.909L730.612 289.55L779.227 249.902C775.642 264.532 767.803 290.41 767.499 305.716C767.195 321.022 777.439 334.668 781.693 343.089C790.417 342.288 797.343 344.55 802.53 351.638C804.339 354.11 804.789 359.544 804.789 359.544H770.906C762.406 351.187 754.618 342.104 747.42 332.578" fill="#96005A"/>
<path d="M627.113 359.707C627.423 371.639 625.349 383.512 621.015 394.627C616.68 405.741 610.171 415.872 601.873 424.421C593.575 432.971 583.655 439.766 572.699 444.405C561.743 449.045 549.972 451.435 538.08 451.435C526.189 451.435 514.418 449.045 503.462 444.405C492.506 439.766 482.585 432.971 474.287 424.421C465.989 415.872 459.481 405.741 455.146 394.627C450.811 383.512 448.738 371.639 449.048 359.707C449.048 298.528 509.271 250.91 509.271 250.91C509.271 250.91 535.99 305.643 570.827 337.023C589.306 353.625 627.113 342.679 627.113 359.707Z" fill="#96005A"/>
<path d="M778.459 254.559C770.825 268.303 751.437 280.831 738.714 287.521C738.071 287.795 737.372 287.909 736.675 287.856C735.978 287.802 735.305 287.581 734.711 287.211C734.118 286.842 733.621 286.334 733.263 285.732C732.905 285.13 732.697 284.45 732.655 283.75L730.05 208.158C730.079 207.834 730.079 207.509 730.05 207.185C724.708 187.934 717.996 163.234 715.716 143.381C714.828 132.874 719.008 121.571 724.658 118.032C729.408 113.071 731.134 111.039 737.444 108.353C743.755 105.667 754.519 102.382 761.374 102.402C770.019 102.5 777.626 104.792 784.852 108.353C789.348 110.568 793.728 113.242 798.021 116.284C798.486 116.684 800.927 116.802 801.179 117.363C803.36 123.444 806.632 141.688 804.814 176.109C802.33 221.72 789.728 234.369 778.459 254.559Z" fill="#BD3680"/>
<path d="M784.309 141.538L771.846 144.043C771.354 140.084 771.976 136.077 773.654 132.392C775.914 127.789 783.921 126.566 786.568 126.915C787.441 126.901 788.306 127.055 789.106 127.37C789.905 127.684 790.621 128.15 791.203 128.736C791.785 129.322 792.221 130.014 792.479 130.766C792.738 131.517 792.814 132.31 792.703 133.091L784.309 141.538Z" fill="#96005A"/>
<path d="M737.987 141.538L750.45 144.043C750.942 140.084 750.32 136.077 748.642 132.392C746.382 127.789 738.375 126.566 735.727 126.915C734.855 126.901 733.99 127.055 733.19 127.37C732.39 127.684 731.675 128.15 731.093 128.736C730.511 129.322 730.075 130.014 729.817 130.766C729.558 131.517 729.482 132.31 729.593 133.091L737.987 141.538Z" fill="#96005A"/>
<path d="M736.416 142.721C739.877 143.755 743.594 143.908 747.242 143.992C748.076 144.012 748.563 143.065 748.054 142.405C746.752 140.712 744.691 138.098 743.202 136.518C740.475 133.781 733.992 133.842 733.992 139.194C733.992 139.194 733.508 141.079 736.416 142.721Z" fill="#FFA8DC"/>
<path d="M761.148 102.402C764.718 102.486 767.733 102.402 774.317 103.724C780.901 105.046 784.852 108.351 784.852 108.351C781.506 115.302 774.662 128.769 773.412 132.645L773.309 132.869C772.504 136.871 772.118 140.948 772.158 145.031C776.054 149.469 778.468 155.02 779.064 160.904C779.137 162.218 778.948 163.533 778.507 164.772C778.065 166.011 777.381 167.15 776.494 168.119C775.608 169.088 774.537 169.868 773.345 170.415C772.152 170.962 770.863 171.265 769.552 171.303C766.686 171.146 763.564 170.049 761.148 168.493C758.733 170.049 755.61 171.146 752.744 171.303C751.434 171.265 750.144 170.962 748.952 170.415C747.76 169.868 746.689 169.088 745.802 168.119C744.915 167.15 744.231 166.011 743.79 164.772C743.348 163.533 743.159 162.218 743.233 160.904C743.828 155.02 746.242 149.469 750.139 145.031C750.178 140.948 749.793 136.871 748.988 132.869L748.885 132.645C747.634 128.769 740.79 115.302 737.444 108.351C737.444 108.351 741.395 105.046 747.979 103.724C754.564 102.402 757.578 102.486 761.148 102.402Z" fill="#FFA8DC"/>
<path d="M646.622 359.827H532.537L543.504 328.204L584.884 294.695L627.295 279.613C626.629 286.06 629.234 297.067 621.236 310.629C618.117 315.796 613.997 320.284 609.119 323.825C606.869 325.285 604.993 327.258 603.646 329.583C602.298 331.908 601.517 334.519 601.364 337.204V341.583C616.702 341.264 647.531 337.027 646.622 359.827Z" fill="#96005A"/>
<path d="M590.409 236.813C573.265 234.681 562.343 243.832 545.558 247.934C557.205 248.558 568.395 252.691 577.669 259.793C590.695 269.888 592.69 292.263 592.629 301.203C600.325 293.462 611.483 286.565 622.321 285.456C636.256 283.814 668.186 292.571 679.394 297.619C682.224 306.809 684.549 316.148 686.361 325.593C690.083 339.165 698.609 351.22 709.916 359.547H742.669C742.669 359.547 741.58 352.403 738.152 348.817C733.365 343.77 722.714 342.196 718.352 343.169C716.17 333.682 715.019 311.241 727.864 297.619C743.919 280.591 754.643 269.158 758.157 247.508C761.671 225.858 748.221 199.951 734.952 186.207C721.684 172.463 716.413 145.401 716.776 152.638C716.837 163.876 716.006 175.102 714.292 186.207C712.838 194.661 702.175 208.648 691.512 227.318C684.444 241.954 677.195 246.479 676.262 262.717C669.515 261.891 660.624 260.782 654.059 259.016C636.61 254.82 616.946 240.765 590.409 236.813Z" fill="#FFA8DC"/>
<path d="M602.393 359.644H536.656C526.648 359.783 516.976 356.02 509.677 349.146C502.377 342.273 498.018 332.825 497.517 322.791C496.223 301.603 496.994 280.339 499.819 259.301C505.878 226.948 544.653 183.04 590.699 181.094C648.317 178.601 673.521 208.278 692.485 206.15C697.28 205.69 701.905 204.13 706.003 201.588C710.1 199.047 711.456 192.061 714.01 187.962C714.01 187.962 725.112 210.165 711.79 241.25C698.467 272.335 676.264 267.154 659.981 267.154C643.699 267.154 611.134 241.25 589.671 239.77C568.207 238.29 550.106 247.625 550.106 247.625C550.106 247.625 595.91 253.706 593.123 296.823C590.82 333.312 567.919 340.001 560.467 341.279C567.313 340.549 587.427 339.028 594.698 346.509C603.422 355.509 602.332 358.671 602.332 359.644" fill="#BD3680"/>
<path d="M765.712 155.919C766.359 155.913 766.992 156.104 767.529 156.466C767.978 156.767 768.345 157.174 768.598 157.651C768.852 158.129 768.984 158.661 768.983 159.203C768.991 159.938 768.732 160.651 768.256 161.209L765.712 164.372C765.275 164.879 764.736 165.288 764.13 165.571C763.524 165.854 762.866 166.005 762.198 166.014H761.41C760.74 166.017 760.077 165.872 759.47 165.588C758.862 165.304 758.325 164.889 757.896 164.372L755.291 161.209C754.815 160.651 754.556 159.938 754.564 159.203C754.563 158.661 754.695 158.129 754.949 157.651C755.202 157.174 755.569 156.767 756.018 156.466C756.529 156.097 757.146 155.905 757.775 155.919H765.712Z" fill="#96005A"/>
<path d="M785.879 142.721C782.418 143.755 778.701 143.908 775.053 143.992C774.219 144.012 773.732 143.065 774.241 142.405C775.543 140.712 777.604 138.098 779.093 136.518C781.82 133.781 788.303 133.842 788.303 139.194C788.303 139.194 788.787 141.079 785.879 142.721Z" fill="#FFA8DC"/>
<path d="M799.995 93.1501C793.109 91.6242 788.046 102.092 784.851 108.351C784.851 108.351 788.801 110.334 794.727 115.621C800.653 120.908 803.287 126.196 803.287 126.196C803.287 126.196 806.88 94.6759 799.995 93.1501Z" fill="#96005A"/>
<path d="M721.921 93.1501C728.807 91.6242 734.249 102.092 737.444 108.351C737.444 108.351 733.114 110.334 727.188 115.621C721.262 120.908 718.629 126.196 718.629 126.196C718.629 126.196 715.035 94.6759 721.921 93.1501Z" fill="#96005A"/>
<path d="M720 450L630 450L630 360C641.817 359.994 653.519 362.318 664.438 366.838C675.357 371.359 685.279 377.987 693.637 386.345C701.995 394.703 708.625 404.626 713.148 415.549C717.672 426.471 720 438.177 720 450Z" fill="#FFA8DC"/>
<path d="M810 450L810 360L720 360C719.994 371.817 722.318 383.519 726.838 394.438C731.359 405.357 737.987 415.279 746.345 423.637C754.703 431.995 764.626 438.625 775.549 443.148C786.471 447.672 798.177 450 810 450Z" fill="#96005A"/>
<path d="M990 451L990 361L900 361C899.994 372.817 902.318 384.519 906.838 395.438C911.359 406.357 917.987 416.279 926.345 424.637C934.703 432.995 944.626 439.625 955.549 444.148C966.471 448.672 978.177 451 990 451Z" fill="#96005A"/>
</g>
<defs>
<clipPath id="clip0_4066_211">
<rect width="1170" height="450" fill="white"/>
</clipPath>
</defs>
</svg>
